HIERARCHY
ROOT Hips
{
	OFFSET 0.000000 0.000000 0.000000
	CHANNELS 6 Xposition Yposition Zposition Xrotation Yrotation Zrotation
	JOINT LeftUpLeg_virtual
	{
		OFFSET 0.000000 0.000000 0.000000
		CHANNELS 3 Xrotation Yrotation Zrotation
		JOINT LeftUpLeg
		{
			OFFSET 15.427100 -6.655098 0.678600
			CHANNELS 3 Xrotation Yrotation Zrotation
			JOINT LeftLeg
			{
				OFFSET 4.081073 -39.591068 13.024000
				CHANNELS 3 Xrotation Yrotation Zrotation
				JOINT LeftFoot
				{
					OFFSET -4.081074 -37.707932 -15.979700
					CHANNELS 3 Xrotation Yrotation Zrotation
					JOINT LeftToeBase
					{
						OFFSET 5.346399 -15.068900 20.645000
						CHANNELS 3 Xrotation Yrotation Zrotation
						JOINT LeftToe_End
						{
							OFFSET 2.754700 0.931300 11.300900
							CHANNELS 3 Xrotation Yrotation Zrotation
							End Site
							{
								OFFSET 0 0 0
							}
						}
					}
				}
			}
		}
	}
	JOINT RightUpLeg_virtual
	{
		OFFSET 0.000000 0.000000 0.000000
		CHANNELS 3 Xrotation Yrotation Zrotation
		JOINT RightUpLeg
		{
			OFFSET -15.569500 -6.655098 0.678600
			CHANNELS 3 Xrotation Yrotation Zrotation
			JOINT RightLeg
			{
				OFFSET -4.081825 -39.591045 13.023800
				CHANNELS 3 Xrotation Yrotation Zrotation
				JOINT RightFoot
				{
					OFFSET 4.081824 -37.707954 -15.979600
					CHANNELS 3 Xrotation Yrotation Zrotation
					JOINT RightToeBase
					{
						OFFSET -5.346400 -15.068900 20.645000
						CHANNELS 3 Xrotation Yrotation Zrotation
						JOINT RightToe_End
						{
							OFFSET -2.754700 0.931300 11.300900
							CHANNELS 3 Xrotation Yrotation Zrotation
							End Site
							{
								OFFSET 0 0 0
							}
						}
					}
				}
			}
		}
	}
	JOINT Spine_virtual
	{
		OFFSET 0.000000 0.000000 0.000000
		CHANNELS 3 Xrotation Yrotation Zrotation
		JOINT Spine
		{
			OFFSET -0.279200 12.230698 -2.892100
			CHANNELS 3 Xrotation Yrotation Zrotation
			JOINT Spine1
			{
				OFFSET -0.232667 10.192268 -1.242267
				CHANNELS 3 Xrotation Yrotation Zrotation
				JOINT Spine1_split
				{
					OFFSET -0.232667 10.192268 -1.242267
					CHANNELS 3 Xrotation Yrotation Zrotation
					JOINT Spine2
					{
						OFFSET -0.232667 10.192268 -1.242267
						CHANNELS 3 Xrotation Yrotation Zrotation
						JOINT Neck_virtual
						{
							OFFSET 0.000000 0.000000 0.000000
							CHANNELS 3 Xrotation Yrotation Zrotation
							JOINT Neck
							{
								OFFSET -0.418800 17.814194 8.416900
								CHANNELS 3 Xrotation Yrotation Zrotation
								JOINT Head
								{
									OFFSET 0.000000 7.031097 3.806800
									CHANNELS 3 Xrotation Yrotation Zrotation
									JOINT HeadTop_End
									{
										OFFSET 0.000000 24.646606 12.978600
										CHANNELS 3 Xrotation Yrotation Zrotation
										End Site
										{
											OFFSET 0 0 0
										}
									}
								}
							}
						}
						JOINT LeftShoulder_virtual
						{
							OFFSET 0.000000 0.000000 0.000000
							CHANNELS 3 Xrotation Yrotation Zrotation
							JOINT LeftShoulder
							{
								OFFSET 8.476499 7.247704 -3.868750
								CHANNELS 3 Xrotation Yrotation Zrotation
								JOINT LeftShoulder_split
								{
									OFFSET 8.476499 7.247704 -3.868750
									CHANNELS 3 Xrotation Yrotation Zrotation
									JOINT LeftArm
									{
										OFFSET 9.308998 -2.777710 0.208600
										CHANNELS 3 Xrotation Yrotation Zrotation
										JOINT LeftForeArm
										{
											OFFSET 29.972298 0.000000 0.000000
											CHANNELS 3 Xrotation Yrotation Zrotation
											JOINT LeftHand
											{
												OFFSET 26.026505 0.000000 0.000000
												CHANNELS 3 Xrotation Yrotation Zrotation
												End Site
												{
													OFFSET 0 0 0
												}
											}
										}
									}
								}
							}
						}
						JOINT RightShoulder_virtual
						{
							OFFSET 0.000000 0.000000 0.000000
							CHANNELS 3 Xrotation Yrotation Zrotation
							JOINT RightShoulder
							{
								OFFSET -7.570500 7.247704 -3.868750
								CHANNELS 3 Xrotation Yrotation Zrotation
								JOINT RightShoulder_split
								{
									OFFSET -7.570500 7.247704 -3.868750
									CHANNELS 3 Xrotation Yrotation Zrotation
									JOINT RightArm
									{
										OFFSET -9.308998 -2.777710 0.208500
										CHANNELS 3 Xrotation Yrotation Zrotation
										JOINT RightForeArm
										{
											OFFSET -29.972300 0.000000 0.000000
											CHANNELS 3 Xrotation Yrotation Zrotation
											JOINT RightHand
											{
												OFFSET -26.026505 0.000000 0.000000
												CHANNELS 3 Xrotation Yrotation Zrotation
												End Site
												{
													OFFSET 0 0 0
												}
											}
										}
									}
								}
							}
						}
					}
				}
			}
		}
	}
}
MOTION
Frames: 8
Frame Time: 0.03333333
-7.995886 84.179024 43.565956 0.000000 0.000000 0.000000 27.259615 1.207132 -15.297916 -72.052144 -6.946132 19.354789 33.980645 8.367152 -9.102694 18.135192 -2.836393 8.186594 -1.594155 0.629214 -0.403342 0.000000 0.000000 0.000000 27.299498 5.663799 -16.860810 3.876071 -22.355085 -19.209412 71.608188 6.923261 0.012236 24.736357 -0.120811 11.970298 18.752986 0.168970 0.869307 0.000000 0.000000 0.000000 26.540262 4.226410 -17.177970 6.597583 14.909545 -10.467433 12.172860 11.698080 -7.219718 1.726620 2.212748 0.386228 0.000000 0.000000 0.000000 12.203620 11.003081 -7.542726 -11.053920 -6.943690 7.215093 -26.042381 -32.187707 19.569452 0.000000 0.000000 0.000000 11.650890 11.741645 -7.570478 0.035282 5.944558 4.582032 -3.821087 0.016051 -1.073773 31.282809 -41.284074 -15.726172 0.225126 -29.462369 -0.714385 0.000000 0.000000 0.000000 11.742779 11.015707 -8.015932 5.153358 14.256245 -6.493153 0.167662 4.460086 -0.658867 -18.035089 58.148098 33.377953 -2.008418 40.926828 -0.213919 0.000000 0.000000 0.000000 
-8.200124 83.550049 45.207981 0.000000 0.000000 0.000000 25.388483 2.483423 -14.493556 -70.790478 -5.954480 18.966322 35.783945 7.846015 -9.797787 15.598740 -2.720334 8.113226 -1.307180 0.552117 -0.498304 0.000000 0.000000 0.000000 25.289300 6.195823 -15.875265 0.455625 -22.652777 -18.117285 68.815495 7.136647 0.183331 23.159143 -0.526770 8.801887 19.347252 0.138391 0.649001 0.000000 0.000000 0.000000 24.487821 5.065805 -16.421467 6.461393 13.282600 -10.780441 12.599322 10.787617 -7.353202 1.515381 2.371197 0.297054 0.000000 0.000000 0.000000 12.442533 10.226086 -7.695600 -11.243156 -6.660852 6.731456 -26.101585 -31.811531 20.112595 0.000000 0.000000 0.000000 11.716621 11.024828 -7.685883 0.161844 5.375926 5.480423 -3.867037 -1.004568 -1.784600 29.354695 -43.746863 -8.303256 0.468384 -27.695234 -0.483126 0.000000 0.000000 0.000000 11.974098 10.290859 -8.082350 4.902716 13.655077 -5.517669 0.741216 3.346365 -0.411755 -17.209613 54.257814 27.058727 -1.965349 39.710658 0.028825 0.000000 0.000000 0.000000 
-8.202239 83.275200 46.873058 0.000000 0.000000 0.000000 23.681869 3.806107 -13.848704 -69.127716 -4.541199 18.465333 37.237184 7.080365 -10.244558 13.257901 -2.751941 8.079065 -1.142430 0.502488 -0.639289 0.000000 0.000000 0.000000 23.208153 7.156853 -15.176971 -2.767911 -23.250191 -17.158204 65.483448 7.493091 0.199590 22.067404 -0.275411 5.375338 18.644096 0.279368 0.965128 0.000000 0.000000 0.000000 22.459281 6.088418 -15.829191 6.317413 11.667339 -11.036939 13.026102 9.594022 -7.480968 1.454636 2.246515 0.190754 0.000000 0.000000 0.000000 12.755934 9.178228 -7.865713 -11.374112 -6.478282 6.272622 -25.772004 -31.178058 20.797742 0.000000 0.000000 0.000000 11.904145 9.986809 -7.797294 0.294902 4.655900 6.236189 -3.755709 -1.817523 -2.394679 25.794109 -46.965419 -2.476100 0.680079 -25.194123 -0.138972 0.000000 0.000000 0.000000 12.377368 9.296230 -8.167488 4.863242 13.243792 -5.637854 1.056671 2.187451 -0.332704 -17.012135 51.057201 22.080974 -1.874690 37.396782 0.248482 0.000000 0.000000 0.000000 
-8.009325 83.305336 48.537868 0.000000 0.000000 0.000000 21.986866 5.239801 -13.443327 -66.976097 -2.903689 17.996256 38.520443 6.064329 -10.384247 11.237958 -2.881173 8.067123 -1.379180 0.477087 -0.779762 0.000000 0.000000 0.000000 21.101086 8.369985 -14.768939 -5.990851 -23.853392 -16.560910 61.649663 8.247737 -0.209549 22.410947 0.855709 3.208871 14.263918 0.415000 2.048182 0.000000 0.000000 0.000000 20.484518 7.272187 -15.448221 6.185310 9.911506 -11.262373 13.476837 8.039226 -7.520723 1.422682 1.997935 0.079856 0.000000 0.000000 0.000000 13.126824 7.739171 -7.935133 -11.379698 -6.350073 5.895561 -24.998924 -30.064812 21.640826 0.000000 0.000000 0.000000 12.238311 8.528441 -7.837432 0.416493 3.824325 6.797531 -3.684884 -2.127640 -2.759238 20.159845 -50.487116 1.041817 0.762039 -22.036367 0.241331 0.000000 0.000000 0.000000 12.897008 7.901673 -8.173764 5.001842 12.954506 -6.830698 1.136589 1.319895 -0.468104 -16.762181 48.560432 17.685349 -1.721539 34.998429 0.372502 0.000000 0.000000 0.000000 
-7.611803 83.541573 50.457581 0.000000 0.000000 0.000000 20.251094 6.584577 -13.311552 -64.451823 -1.120117 17.710218 39.722082 4.958245 -10.198430 9.341408 -3.004701 8.303770 -1.688278 0.450355 -0.965476 0.000000 0.000000 0.000000 19.086129 9.603659 -14.658846 -9.060459 -24.216029 -16.257877 56.827744 9.162201 -0.984343 23.386930 2.490954 2.322767 7.698473 0.308459 4.000483 0.000000 0.000000 0.000000 18.443451 8.355102 -15.340438 6.086088 7.948654 -11.437616 13.932377 6.153578 -7.420426 1.499348 1.749277 -0.158747 0.000000 0.000000 0.000000 13.489839 5.919042 -7.836875 -11.208810 -6.192082 5.589629 -23.858961 -28.407959 22.612702 0.000000 0.000000 0.000000 12.696205 6.641224 -7.730995 0.498740 2.985854 7.251235 -3.522140 -2.076614 -2.746432 12.397058 -53.594729 1.836337 0.636552 -18.709548 0.576635 0.000000 0.000000 0.000000 13.465312 6.100064 -8.061794 5.256029 12.602815 -8.855676 1.106289 0.663554 -0.638760 -16.813334 46.666981 13.841434 -1.545603 33.541177 0.412578 0.000000 0.000000 0.000000 
-6.977982 83.920433 52.454681 0.000000 0.000000 0.000000 18.446676 7.689989 -13.512528 -61.614488 0.720633 17.755253 40.657432 3.902642 -9.738781 7.326827 -3.051917 8.841847 -1.721685 0.424077 -1.177807 0.000000 0.000000 0.000000 17.253065 10.631701 -14.831631 -11.678899 -24.248059 -15.950891 50.744822 9.871695 -1.938471 23.531598 3.901428 1.696975 2.130645 -0.114615 6.522174 0.000000 0.000000 0.000000 16.395309 9.013720 -15.493663 6.001310 5.803858 -11.510108 14.356817 4.017841 -7.154876 1.629966 1.702003 -0.365501 0.000000 0.000000 0.000000 13.832221 3.806133 -7.542538 -10.907967 -5.962397 5.354569 -22.530468 -26.224942 23.606029 0.000000 0.000000 0.000000 13.171744 4.450064 -7.445353 0.525039 2.290549 7.656338 -3.363461 -1.861465 -2.329000 2.848911 -55.883290 0.091649 0.304129 -15.986696 0.805112 0.000000 0.000000 0.000000 13.983984 3.974175 -7.785401 5.489088 12.129512 -11.320181 0.922611 0.007235 -0.572628 -18.445281 45.337037 11.241254 -1.380095 33.339103 0.380003 0.000000 0.000000 0.000000 
-6.108932 84.395447 54.351139 0.000000 0.000000 0.000000 16.530685 8.220858 -13.988005 -58.541763 2.565335 18.215575 41.004539 2.967854 -9.094493 5.073711 -3.064406 9.424582 -1.558820 0.409128 -1.266397 0.000000 0.000000 0.000000 15.677231 11.134536 -15.279266 -13.980271 -23.906944 -15.470590 44.081949 9.922977 -2.713397 22.363740 4.537233 0.939110 -0.440663 -0.611281 8.901584 0.000000 0.000000 0.000000 14.398853 8.984633 -15.866613 5.911174 3.620202 -11.385866 14.682021 1.771292 -6.743532 1.659356 1.971520 -0.365661 0.000000 0.000000 0.000000 14.100680 1.552230 -7.074359 -10.628032 -5.591751 5.091629 -21.268459 -23.578812 24.504427 0.000000 0.000000 0.000000 13.579120 2.145349 -6.992390 0.495490 1.768940 8.097940 -3.225758 -1.533579 -1.554838 -7.292479 -57.184543 -3.310182 -0.148891 -14.399104 0.911276 0.000000 0.000000 0.000000 14.357712 1.710069 -7.346446 5.573038 11.518885 -13.644511 0.795422 -0.564873 -0.288349 -23.052761 44.435804 11.023936 -1.262770 34.375338 0.310590 0.000000 0.000000 0.000000 
-4.982511 85.081558 55.984489 0.000000 0.000000 0.000000 14.739734 7.812516 -14.715523 -55.229599 4.391828 19.004072 40.647784 2.238590 -8.312884 2.856107 -3.025038 9.829007 -1.400545 0.389112 -1.124876 0.000000 0.000000 0.000000 14.274261 10.775166 -15.942070 -16.481967 -23.395447 -14.961914 37.578782 9.477068 -2.990292 21.255306 4.653417 0.855337 -0.443373 -0.882517 10.287138 0.000000 0.000000 0.000000 12.562402 8.122521 -16.432542 5.818067 1.593773 -10.976736 14.860810 -0.410101 -6.232751 1.712705 2.300710 -0.438929 0.000000 0.000000 0.000000 14.228699 -0.626824 -6.494620 -10.502739 -5.121873 4.743398 -20.271882 -20.736557 25.225716 0.000000 0.000000 0.000000 13.826842 -0.075649 -6.421023 0.416328 1.460093 8.633417 -3.025874 -1.582369 -0.491539 -16.623012 -57.647985 -7.226740 -0.599399 -14.155079 0.900326 0.000000 0.000000 0.000000 14.538865 -0.475634 -6.779248 5.490337 10.884178 -15.447325 0.608118 -1.164251 0.204757 -31.455449 43.692095 14.237021 -1.230402 35.789532 0.267874 0.000000 0.000000 0.000000 
